Coordinates
version=1
nRows=17
nColumns=24
inDegrees=yes

Units are S.I. units (second, meters, Newtons, ...)
Angles are in degrees.

endheader
time	pelvis_tilt	pelvis_list	pelvis_rotation	pelvis_tx	pelvis_ty	pelvis_tz	hip_flexion_r	hip_adduction_r	hip_rotation_r	knee_angle_r	ankle_angle_r	subtalar_angle_r	mtp_angle_r	hip_flexion_l	hip_adduction_l	hip_rotation_l	knee_angle_l	ankle_angle_l	subtalar_angle_l	mtp_angle_l	lumbar_extension	lumbar_bending	lumbar_rotation
      4.70000000	     -8.54332010	      2.75026721	      6.46790282	      0.06486843	      0.97271054	      0.06396809	     -1.66126149	     -2.66507089	    -15.22335202	     -9.65089902	     12.15376746	      0.00000000	      0.00000000	     25.07836968	      0.53901969	    -11.12181199	      6.68015008	     -4.32770653	      0.00000000	      0.00000000	     -0.42392207	     -2.34722829	     12.97117602
      4.71000000	     -8.35357172	      2.68379584	      6.16741669	      0.06459560	      0.97193609	      0.06281206	     -2.00474545	     -2.71588648	    -14.88967706	    -10.27745995	     12.31460243	      0.00000000	      0.00000000	     25.05923374	      0.40777923	    -10.96615597	      6.48191546	     -3.82006880	      0.00000000	      0.00000000	     -0.68439198	     -2.33547239	     13.17059266
      4.72000000	     -8.38702850	      2.61359393	      6.01811635	      0.06503917	      0.97090917	      0.06131013	     -2.35130002	     -2.75202125	    -14.87467768	    -10.47141669	     12.31332199	      0.00000000	      0.00000000	     25.13556839	      0.40517372	    -10.92954905	      6.40193039	     -3.82452290	      0.00000000	      0.00000000	     -0.54879556	     -2.35423935	     13.18616495
      4.73000000	     -8.08703791	      2.56823195	      5.56869013	      0.06487102	      0.97030288	      0.06018141	     -2.73659891	     -2.85333487	    -14.38403352	    -11.22213990	     12.53605459	      0.00000000	      0.00000000	     25.16895863	      0.19299562	    -10.96937856	      5.45409188	     -3.19103069	      0.00000000	      0.00000000	     -0.94451290	     -2.36279907	     13.53357604
      4.74000000	     -8.02625203	      2.53999431	      5.29190464	      0.06534852	      0.96946639	      0.05856824	     -3.06632517	     -2.98565419	    -14.26399145	    -11.62792874	     12.45152164	      0.00000000	      0.00000000	     25.20548599	      0.13256397	    -10.80248914	      4.87303881	     -3.33516719	      0.00000000	      0.00000000	     -0.94432724	     -2.41062413	     13.68466656
      4.75000000	     -7.88620585	      2.50330582	      4.98785683	      0.06589338	      0.96871595	      0.05690856	     -3.38577530	     -3.13288553	    -14.01984452	    -12.25542166	     12.35797816	      0.00000000	      0.00000000	     25.20571254	      0.04796622	    -10.71408624	      4.07427598	     -3.43436009	      0.00000000	      0.00000000	     -1.04079816	     -2.43760892	     13.82969235
      4.76000000	     -7.76595574	      2.47120640	      4.63990716	      0.06670006	      0.96797344	      0.05511386	     -3.69763782	     -3.30573528	    -13.80925858	    -12.84779926	     12.25728466	      0.00000000	      0.00000000	     25.16474988	     -0.03846098	    -10.62044686	      3.26233478	     -3.62555206	      0.00000000	      0.00000000	     -1.07430881	     -2.46377666	     14.01590337
      4.77000000	     -7.63311057	      2.43983281	      4.29018102	      0.06761355	      0.96727166	      0.05319003	     -3.98040256	     -3.50245226	    -13.55311348	    -13.52671019	     12.09583221	      0.00000000	      0.00000000	     25.10319843	     -0.11601741	    -10.55762494	      2.40197155	     -3.92497520	      0.00000000	      0.00000000	     -1.11569512	     -2.48822848	     14.16912868
      4.78000000	     -7.48656775	      2.41461908	      3.92241648	      0.06868988	      0.96665351	      0.05119947	     -4.21982867	     -3.72797470	    -13.22430665	    -14.34581629	     11.87249280	      0.00000000	      0.00000000	     25.01181251	     -0.19402620	    -10.59151489	      1.50588641	     -4.32446980	      0.00000000	      0.00000000	     -1.15245130	     -2.51219701	     14.32078354
      4.79000000	     -7.36247312	      2.40328172	      3.55686213	      0.06993492	      0.96609116	      0.04908618	     -4.43134246	     -3.98550074	    -12.93028068	    -15.15274060	     11.56879196	      0.00000000	      0.00000000	     24.90537474	     -0.25796484	    -10.57626458	      0.63496370	     -4.84548833	      0.00000000	      0.00000000	     -1.14270334	     -2.55623170	     14.46831002
      4.80000000	     -7.23914780	      2.40247847	      3.22801316	      0.07125630	      0.96564184	      0.04684304	     -4.58598949	     -4.26733583	    -12.60195556	    -16.08083626	     11.14141725	      0.00000000	      0.00000000	     24.78434826	     -0.29692364	    -10.60894973	     -0.22501252	     -5.45810994	      0.00000000	      0.00000000	     -1.13005741	     -2.61001206	     14.54789028
      4.81000000	     -7.24152631	      2.49769649	      2.68228538	      0.07272149	      0.96519296	      0.04479043	     -4.44601801	     -4.70818287	    -12.02397942	    -17.26462644	     10.65495997	      0.00000000	      0.00000000	     24.68409648	     -0.31561362	    -11.15660525	     -0.90131288	     -6.26162433	      0.00000000	      0.00000000	     -0.94121214	     -2.77444793	     14.85707248
      4.82000000	     -7.10179905	      2.50881592	      2.50086373	      0.07424841	      0.96504922	      0.04224422	     -4.58304030	     -5.01508272	    -11.76169982	    -18.25258729	     10.02131221	      0.00000000	      0.00000000	     24.54920393	     -0.31485529	    -10.96944967	     -1.81591164	     -6.86697677	      0.00000000	      0.00000000	     -0.94247243	     -2.84597411	     14.75989110
      4.83000000	     -6.96762904	      2.53996543	      2.33908921	      0.07576130	      0.96509525	      0.03961546	     -4.60201554	     -5.36718089	    -11.53710910	    -19.43156976	      9.16093382	      0.00000000	      0.00000000	     24.41008399	     -0.29318478	    -10.91896043	     -2.72351525	     -7.46184452	      0.00000000	      0.00000000	     -0.94524831	     -2.94015547	     14.62872620
      4.84000000	     -6.99200779	      2.67459780	      2.10029803	      0.07741794	      0.96514455	      0.03696303	     -4.35204499	     -5.88561159	    -11.34651169	    -20.74500440	      8.00158507	      0.00000000	      0.00000000	     24.40459017	     -0.19720615	    -11.14141697	     -3.62220494	     -7.97588228	      0.00000000	      0.00000000	     -0.73327665	     -3.14555934	     14.60950884
      4.85000000	     -6.88043127	      2.73800397	      1.99816618	      0.07895618	      0.96554378	      0.03418221	     -4.20203915	     -6.30161000	    -11.13898221	    -22.12998373	      6.89759490	      0.00000000	      0.00000000	     24.29520465	     -0.14409546	    -11.05037799	     -4.61163134	     -8.34801338	      0.00000000	      0.00000000	     -0.71760537	     -3.27443349	     14.40525490
      4.86000000	     -6.89562861	      2.83907449	      1.94887640	      0.08051767	      0.96592576	      0.03129859	     -3.82887228	     -6.78382698	    -10.97905054	    -23.64746940	      5.51771345	      0.00000000	      0.00000000	     24.34787870	     -0.02835082	    -11.05681923	     -5.70521211	     -8.44873151	      0.00000000	      0.00000000	     -0.54644007	     -3.45114566	     14.17053992
